<svg width="90" height="82" viewBox="0 0 90 82" fill="none" xmlns="http://www.w3.org/2000/svg">
<path d="M26.1875 68.9062C26.1875 70.0625 25.7917 70.9531 25 71.5781C24.2135 72.1979 23.0859 72.5078 21.6172 72.5078H20.2734V77H18.9453V65.5781H21.9062C24.7604 65.5781 26.1875 66.6875 26.1875 68.9062ZM20.2734 71.3672H21.4688C22.6458 71.3672 23.4974 71.1771 24.0234 70.7969C24.5495 70.4167 24.8125 69.8073 24.8125 68.9688C24.8125 68.2135 24.5651 67.651 24.0703 67.2812C23.5755 66.9115 22.8047 66.7266 21.7578 66.7266H20.2734V71.3672ZM37.2578 77H35.9297V71.625H29.9141V77H28.5859V65.5781H29.9141V70.4375H35.9297V65.5781H37.2578V77ZM50.3125 71.2734C50.3125 73.1016 49.849 74.5391 48.9219 75.5859C48 76.6328 46.7161 77.1562 45.0703 77.1562C43.388 77.1562 42.0885 76.6432 41.1719 75.6172C40.2604 74.5859 39.8047 73.1328 39.8047 71.2578C39.8047 69.3984 40.263 67.9583 41.1797 66.9375C42.0964 65.9115 43.3984 65.3984 45.0859 65.3984C46.7266 65.3984 48.0078 65.9193 48.9297 66.9609C49.8516 68.0026 50.3125 69.4401 50.3125 71.2734ZM41.2109 71.2734C41.2109 72.8203 41.5391 73.9948 42.1953 74.7969C42.8568 75.5938 43.8151 75.9922 45.0703 75.9922C46.3359 75.9922 47.2917 75.5938 47.9375 74.7969C48.5833 74 48.9062 72.8255 48.9062 71.2734C48.9062 69.737 48.5833 68.5729 47.9375 67.7812C47.2969 66.9844 46.3464 66.5859 45.0859 66.5859C43.8203 66.5859 42.8568 66.987 42.1953 67.7891C41.5391 68.5859 41.2109 69.7474 41.2109 71.2734ZM56.3828 77H55.0547V66.7578H51.4375V65.5781H60V66.7578H56.3828V77ZM71.6406 71.2734C71.6406 73.1016 71.1771 74.5391 70.25 75.5859C69.3281 76.6328 68.0443 77.1562 66.3984 77.1562C64.7161 77.1562 63.4167 76.6432 62.5 75.6172C61.5885 74.5859 61.1328 73.1328 61.1328 71.2578C61.1328 69.3984 61.5911 67.9583 62.5078 66.9375C63.4245 65.9115 64.7266 65.3984 66.4141 65.3984C68.0547 65.3984 69.3359 65.9193 70.2578 66.9609C71.1797 68.0026 71.6406 69.4401 71.6406 71.2734ZM62.5391 71.2734C62.5391 72.8203 62.8672 73.9948 63.5234 74.7969C64.1849 75.5938 65.1432 75.9922 66.3984 75.9922C67.6641 75.9922 68.6198 75.5938 69.2656 74.7969C69.9115 74 70.2344 72.8255 70.2344 71.2734C70.2344 69.737 69.9115 68.5729 69.2656 67.7812C68.625 66.9844 67.6745 66.5859 66.4141 66.5859C65.1484 66.5859 64.1849 66.987 63.5234 67.7891C62.8672 68.5859 62.5391 69.7474 62.5391 71.2734Z" fill="#E0E0E0"/>
<rect x="8" width="2" height="50" fill="#B2B1B7"/>
<rect x="90" y="5" width="2" height="90" transform="rotate(90 90 5)" fill="#B2B1B7"/>
<rect x="90" y="43" width="2" height="90" transform="rotate(90 90 43)" fill="#B2B1B7"/>
<rect x="80" width="2" height="50" fill="#B2B1B7"/>
<circle cx="45" cy="25" r="12" stroke="#B2B1B7" stroke-width="2"/>
<rect x="67" y="10" width="10" height="2" fill="#C4C4C4"/>
<rect x="12" width="17" height="2" fill="#C4C4C4"/>
</svg>
