<?xml version="1.0" standalone="no"?>
<!DOCTYPE svg PUBLIC "-//W3C//DTD SVG 20010904//EN"
 "http://www.w3.org/TR/2001/REC-SVG-20010904/DTD/svg10.dtd">
<svg version="1.0" xmlns="http://www.w3.org/2000/svg"
 width="959.000000pt" height="1280.000000pt" viewBox="0 0 959.000000 1280.000000"
 preserveAspectRatio="xMidYMid meet">
<g transform="translate(0.000000,1280.000000) scale(0.100000,-0.100000)"
fill="#000000" stroke="none">
<path d="M5388 12779 c-138 -33 -199 -78 -284 -210 -25 -38 -51 -69 -59 -69
-7 0 -50 14 -95 30 -62 23 -98 30 -153 30 -86 0 -119 -17 -167 -84 -18 -25
-41 -48 -51 -51 -19 -6 -260 9 -399 26 -142 16 -306 48 -499 96 -168 41 -193
45 -270 40 -132 -8 -221 -58 -221 -124 0 -26 26 -84 44 -95 21 -14 66 -8 142
18 62 22 88 26 143 22 65 -5 215 -43 238 -60 15 -12 68 -171 88 -263 37 -177
1 -400 -77 -472 -12 -12 -53 -36 -90 -53 -88 -42 -106 -62 -88 -95 8 -14 28
-35 46 -45 63 -40 120 -19 185 68 34 44 44 52 73 52 58 0 206 29 326 65 63 18
139 38 168 44 108 22 327 6 339 -25 3 -8 -2 -44 -11 -80 -9 -37 -14 -69 -11
-72 10 -11 249 -20 267 -11 9 5 26 9 37 9 23 0 22 -7 6 117 -3 23 -1 44 4 48
5 3 31 -18 58 -46 60 -64 114 -93 157 -85 18 3 70 29 115 57 l84 52 56 -18
c326 -101 788 -373 1065 -626 74 -67 451 -488 493 -549 16 -25 70 -117 118
-204 104 -191 103 -190 180 -291 70 -93 125 -195 191 -355 163 -398 364 -1140
494 -1820 61 -322 106 -651 94 -683 -3 -8 -35 -22 -72 -32 -202 -50 -339 -189
-388 -391 -23 -94 -23 -305 -1 -396 56 -228 224 -388 483 -460 70 -20 103 -22
284 -22 197 0 209 1 322 31 283 75 415 179 529 418 95 199 135 404 126 650 -9
237 -52 386 -158 545 -73 108 -147 184 -334 341 -293 246 -382 372 -405 578
-31 280 109 601 328 749 169 115 268 134 448 86 100 -27 214 -36 267 -21 l27
7 -15 38 c-26 62 -62 90 -150 118 -109 36 -253 43 -361 19 -159 -35 -271 -99
-434 -249 -58 -53 -109 -96 -114 -96 -21 0 9 94 64 205 36 71 66 147 74 185
13 64 13 65 -10 68 -12 2 -71 -6 -131 -17 -59 -12 -116 -21 -126 -21 -26 0
-39 38 -117 338 -90 351 -107 398 -230 642 -159 317 -398 675 -605 906 -80 89
-196 185 -493 408 -607 456 -985 657 -1300 692 -36 4 -66 12 -68 19 -3 7 2 40
10 73 24 91 21 150 -15 285 -9 36 -11 37 -52 36 -23 -1 -77 -9 -119 -20z m-67
-311 c16 -25 -8 -121 -83 -332 -45 -125 -88 -230 -95 -233 -22 -8 -50 24 -63
73 -26 93 10 315 66 412 36 61 99 105 138 96 17 -4 34 -11 37 -16z m-371 -213
c0 -48 -17 -225 -25 -262 -4 -17 -25 -28 -112 -57 -263 -87 -758 -195 -783
-170 -7 7 -7 36 0 84 14 111 12 218 -6 305 -9 42 -13 79 -10 82 3 4 94 0 202
-7 111 -7 240 -10 297 -6 99 7 319 46 368 65 13 5 34 10 47 10 20 1 22 -4 22
-44z m591 -30 c44 -89 121 -159 247 -224 55 -28 104 -51 109 -51 4 1 25 25 46
55 21 30 42 55 47 55 6 0 182 -100 391 -222 418 -244 394 -227 779 -579 481
-441 888 -1169 1026 -1838 23 -114 24 -132 14 -210 -14 -110 -41 -226 -75
-321 -33 -92 -43 -106 -61 -88 -7 7 -101 227 -209 488 -201 484 -268 626 -396
836 -275 452 -585 834 -884 1092 -267 230 -630 423 -1098 583 -74 26 -99 39
-103 55 -7 28 14 297 27 351 13 48 48 83 85 83 18 0 29 -13 55 -65z m2816
-3748 c18 -13 -1 -101 -20 -94 -12 4 -39 96 -31 108 5 9 32 2 51 -14z m318
-689 c101 -65 265 -229 334 -333 71 -108 133 -239 170 -360 45 -148 55 -215
54 -370 0 -117 -5 -156 -26 -236 -56 -212 -168 -368 -349 -483 -118 -75 -245
-106 -435 -106 -209 0 -346 44 -452 144 -108 104 -145 206 -144 406 0 243 69
397 192 430 86 23 203 -33 336 -160 92 -88 106 -95 147 -74 18 9 46 26 62 37
28 20 29 21 23 99 -6 97 -24 130 -101 183 -45 30 -68 55 -92 100 -53 96 -96
313 -110 555 -9 158 4 140 101 -140 78 -226 113 -312 137 -340 7 -8 33 -31 58
-49 25 -19 109 -97 187 -174 l142 -141 40 18 c22 11 42 27 45 40 15 55 5 80
-83 215 -48 75 -105 168 -124 208 -81 160 -227 527 -227 569 0 26 35 14 115
-38z"/>
<path d="M3272 12089 c-71 -33 -187 -58 -317 -69 -202 -16 -263 -50 -600 -330
-329 -274 -507 -442 -695 -656 -100 -115 -205 -240 -233 -279 -53 -75 -121
-209 -132 -263 l-7 -33 49 24 c61 32 90 63 147 160 156 266 545 670 839 870
65 45 97 57 97 38 0 -32 -142 -206 -365 -446 -280 -302 -405 -466 -502 -658
-38 -76 -60 -105 -143 -186 -102 -100 -119 -126 -179 -276 -20 -51 -58 -115
-105 -179 -43 -57 -113 -174 -168 -278 -51 -98 -113 -203 -137 -233 -43 -53
-71 -69 -71 -41 0 7 43 125 96 262 53 137 114 300 135 363 68 195 118 272 187
287 56 12 56 13 33 37 -28 30 -27 57 5 118 14 28 22 54 19 57 -4 4 -29 -17
-56 -47 -55 -61 -103 -155 -270 -521 -140 -308 -400 -846 -447 -925 -87 -147
-185 -241 -324 -311 -37 -19 -72 -42 -77 -52 -15 -29 -39 -142 -31 -147 4 -3
34 2 66 11 43 11 70 26 100 55 48 47 126 76 144 54 13 -16 0 -79 -30 -151 -16
-35 -24 -88 -33 -191 -6 -79 -7 -146 -3 -150 13 -13 63 56 79 110 9 29 26 90
38 135 36 138 126 242 209 242 88 0 179 -121 222 -295 30 -124 30 -324 -1
-440 -35 -132 -93 -239 -176 -322 -47 -47 -81 -73 -95 -73 -22 0 -22 3 -16 59
4 32 25 132 47 222 53 215 61 346 30 468 -11 46 -26 90 -32 97 -17 21 -76 18
-88 -5 -7 -11 -8 -56 -5 -112 11 -171 -11 -347 -92 -714 -24 -110 -51 -256
-60 -325 -22 -173 -15 -412 20 -615 39 -227 56 -267 131 -306 56 -29 65 -21
65 60 0 43 -6 63 -27 94 -22 31 -25 43 -17 64 5 15 14 28 21 30 12 4 253 -301
253 -321 0 -7 -38 -43 -84 -79 -116 -92 -179 -164 -226 -260 -78 -159 -88
-236 -81 -592 2 -71 -1 -170 -5 -220 -16 -160 10 -365 106 -860 86 -440 94
-469 175 -675 107 -272 202 -480 326 -708 61 -112 108 -209 105 -217 -9 -24
-159 -66 -243 -68 l-78 -2 -40 76 c-53 101 -61 109 -104 109 -59 0 -74 -18
-79 -93 -10 -149 39 -201 293 -318 127 -58 145 -64 205 -64 82 1 131 26 218
109 110 106 218 290 324 555 94 235 136 376 154 516 18 139 42 236 61 242 20
7 92 -112 124 -204 40 -113 111 -253 207 -412 43 -69 103 -178 134 -241 36
-74 90 -161 149 -240 143 -192 503 -613 594 -695 264 -240 861 -669 1070 -770
65 -32 120 -49 195 -63 58 -11 146 -35 195 -54 l90 -33 -1 -53 c-1 -29 -5 -78
-9 -108 -6 -51 -8 -54 -34 -54 -47 0 -321 58 -406 86 -44 15 -139 52 -210 84
-72 32 -196 84 -275 115 -266 105 -526 247 -854 466 -259 172 -289 205 -466
519 -121 214 -172 290 -242 365 -57 62 -168 132 -188 120 -23 -14 -53 -93 -58
-151 -6 -79 10 -148 58 -249 90 -189 261 -385 675 -774 69 -65 95 -96 84 -98
-32 -8 -367 203 -524 330 -185 149 -231 204 -395 473 -73 119 -155 211 -215
239 -22 10 -64 21 -92 23 l-53 4 0 -35 c0 -41 29 -140 66 -223 40 -92 108
-185 163 -227 61 -46 133 -123 237 -252 154 -192 343 -365 551 -504 186 -123
610 -316 1129 -511 232 -87 255 -93 524 -135 124 -20 237 -38 251 -41 20 -4
39 6 88 46 35 27 67 50 71 50 5 0 41 -22 80 -50 142 -97 230 -106 432 -41 69
22 156 45 194 52 77 13 192 6 212 -14 22 -23 5 -79 -49 -153 -27 -38 -49 -74
-49 -81 0 -18 87 -17 140 2 23 8 61 31 83 51 57 52 106 70 237 89 63 10 125
21 137 26 40 15 54 52 60 153 3 53 9 96 14 96 4 0 36 -33 71 -74 38 -46 71
-75 83 -75 31 -1 140 50 243 111 125 76 292 199 551 406 135 108 292 222 419
304 112 72 229 149 260 172 194 143 292 284 310 444 l7 67 135 6 c74 3 155 11
180 18 137 39 255 139 328 278 47 90 52 125 21 146 -41 29 -86 1 -225 -140
-102 -103 -152 -132 -244 -140 -152 -14 -359 109 -398 237 -24 78 -23 305 1
420 46 214 160 479 268 622 58 78 132 131 364 258 83 45 180 108 218 139 122
102 191 150 236 166 25 8 48 15 53 15 17 0 7 -42 -23 -103 -90 -177 -313 -476
-619 -827 -243 -280 -290 -341 -290 -382 0 -53 80 -64 168 -23 92 42 95 38 63
-103 -19 -84 -16 -98 18 -87 21 6 111 121 111 141 0 6 -16 26 -35 43 -37 32
-55 67 -55 106 0 20 16 32 113 78 82 41 124 68 158 104 56 58 387 504 493 663
150 224 241 434 270 621 31 195 38 224 92 393 91 279 104 456 50 669 -57 222
-164 370 -326 446 -104 49 -192 64 -339 58 -223 -9 -376 -72 -516 -212 -134
-133 -188 -270 -189 -480 -1 -130 1 -136 91 -299 59 -107 37 -274 -78 -591
-124 -340 -397 -887 -621 -1247 -44 -70 -95 -164 -114 -209 -19 -45 -43 -94
-54 -110 -24 -33 -119 -82 -151 -77 -17 2 -75 88 -251 367 -125 201 -262 406
-303 456 -155 191 -445 448 -630 557 -33 20 -106 59 -163 87 -117 59 -167 100
-204 168 -15 27 -122 376 -248 808 l-222 760 53 45 c29 25 83 72 121 106 77
68 145 107 196 108 33 1 34 -1 64 -74 64 -157 70 -212 38 -350 -33 -144 -33
-141 93 -402 210 -432 386 -724 695 -1158 115 -160 241 -362 289 -462 15 -32
34 -58 42 -58 9 0 57 12 108 26 52 15 96 24 100 20 16 -16 -30 -118 -73 -163
-25 -25 -51 -58 -59 -74 -14 -26 -13 -30 31 -83 25 -31 50 -56 55 -56 23 0 88
41 116 73 16 19 66 106 110 193 44 87 109 209 145 269 86 145 104 180 144 291
69 192 114 254 182 254 28 0 42 8 74 42 21 23 41 53 44 65 5 17 -48 146 -194
471 -284 633 -307 693 -363 962 -16 80 -39 164 -50 187 -37 76 -146 165 -470
378 -420 278 -561 385 -663 504 -100 119 -110 186 -52 370 66 206 68 281 22
551 -30 175 -55 394 -59 509 l-2 84 80 31 80 32 8 51 c10 64 -5 127 -40 159
-26 24 -120 64 -151 64 -26 0 -97 -77 -125 -135 -44 -89 -49 -139 -41 -415 l7
-255 -56 -37 c-181 -120 -364 -393 -393 -584 l-7 -47 79 6 c44 3 95 11 114 18
83 28 142 103 180 230 24 78 42 97 112 115 56 15 82 6 74 -25 -2 -9 -7 -33
-10 -53 -6 -31 -14 -41 -59 -66 -65 -37 -142 -118 -169 -178 -17 -40 -36 -195
-38 -312 0 -37 -22 -24 -106 69 -169 184 -287 277 -451 356 l-111 54 -17 72
c-25 101 -46 152 -107 253 l-52 87 -7 171 c-25 583 3 740 148 819 31 16 143
48 306 87 l258 62 57 -47 c88 -74 118 -83 290 -94 116 -8 186 -18 309 -48 153
-37 164 -38 328 -37 140 1 184 5 249 23 257 69 510 242 591 403 56 112 42 196
-45 271 -120 103 -360 119 -908 62 -134 -14 -288 -25 -343 -25 -117 0 -103
-16 -145 166 -30 131 -37 291 -20 509 8 103 6 115 -18 190 -47 146 -132 247
-268 315 -130 65 -196 75 -473 74 -132 -1 -287 -6 -343 -12 -96 -10 -109 -14
-162 -50 -44 -29 -81 -44 -156 -61 -147 -33 -149 -34 -148 -112 0 -35 9 -109
19 -164 l19 -100 -52 -205 c-42 -169 -52 -227 -57 -327 l-7 -123 25 -11 c22
-10 31 -7 71 21 25 19 46 37 46 41 0 11 31 21 77 24 61 5 66 11 59 61 -18 128
-18 128 6 174 l23 45 75 -1 c85 0 133 -18 138 -51 2 -16 -14 -33 -77 -78 -45
-31 -81 -62 -81 -69 0 -7 13 -30 29 -50 20 -25 34 -60 45 -109 26 -127 37
-199 31 -205 -3 -3 -31 4 -63 15 l-58 21 -144 -20 c-87 -11 -256 -22 -420 -28
-292 -9 -353 -18 -510 -80 -329 -129 -528 -399 -455 -619 45 -138 201 -248
443 -313 62 -17 113 -21 266 -24 103 -1 191 -6 195 -9 12 -12 13 -370 1 -545
-21 -322 -39 -471 -61 -506 -24 -40 -87 -94 -264 -224 -91 -67 -184 -148 -265
-230 -133 -135 -160 -156 -311 -239 -53 -29 -153 -95 -222 -147 l-125 -93 -4
-118 c-2 -65 0 -125 4 -134 4 -9 30 -31 58 -49 27 -18 50 -34 50 -36 0 -3 -9
-22 -20 -44 -30 -59 -26 -83 26 -141 39 -44 74 -103 74 -124 0 -17 -35 2 -91
51 -76 66 -161 112 -225 121 -45 6 -46 5 -39 -18 17 -63 33 -83 114 -148 123
-98 308 -268 364 -334 47 -55 117 -162 117 -179 0 -36 -67 24 -292 263 -81 87
-176 178 -210 204 -53 40 -186 115 -203 115 -3 0 -5 -10 -5 -22 1 -46 40 -107
114 -178 118 -113 98 -144 -38 -60 -35 21 -83 48 -105 60 l-41 20 0 -23 c0
-34 21 -59 114 -131 125 -97 228 -219 210 -247 -9 -15 -98 -2 -154 23 -25 10
-78 44 -117 74 -66 51 -152 94 -187 94 -21 0 -1 -70 28 -95 13 -11 52 -44 87
-74 l63 -54 1 -101 c0 -127 20 -171 120 -263 59 -56 97 -78 265 -160 107 -52
227 -110 265 -129 39 -19 84 -45 100 -59 30 -25 30 -25 10 -40 -11 -9 -67 -41
-124 -72 -96 -51 -107 -55 -134 -45 -70 27 -148 85 -276 207 -75 72 -156 146
-181 166 -58 47 -149 103 -157 96 -13 -14 71 -107 201 -223 150 -134 216 -205
247 -266 19 -38 26 -88 11 -88 -8 0 -92 57 -287 192 -98 68 -145 93 -145 77 0
-35 60 -114 133 -176 86 -73 167 -172 167 -206 0 -24 -89 -157 -105 -157 -6 0
-32 33 -58 73 -25 39 -87 119 -138 177 -200 229 -210 248 -219 415 -4 84 -11
130 -23 152 -28 52 -35 52 -80 -7 -62 -83 -72 -237 -32 -495 13 -88 25 -176
25 -195 0 -30 -2 -32 -14 -20 -8 8 -51 80 -97 160 -198 350 -348 526 -639 750
-221 171 -330 292 -380 426 -28 75 -27 184 1 261 28 76 111 200 195 292 l68
74 92 -6 c232 -14 420 -135 513 -331 59 -122 75 -198 75 -356 0 -141 -13 -216
-40 -227 -30 -11 -99 20 -142 65 -40 40 -47 44 -80 39 -19 -4 -38 -10 -42 -14
-11 -12 5 -212 17 -224 22 -22 147 -49 228 -49 137 0 218 57 262 183 63 184
-41 591 -236 926 -29 49 -41 80 -37 94 3 12 41 65 84 118 98 121 138 182 162
253 39 110 17 282 -52 406 -64 115 -62 110 -60 210 1 93 83 937 122 1260 62
509 155 894 301 1244 122 290 253 521 550 967 192 288 226 334 291 390 183
160 225 217 244 339 l7 40 -81 0 c-44 0 -88 -3 -97 -6 -9 -4 -30 -35 -46 -70
-43 -92 -97 -155 -172 -202 -69 -44 -91 -68 -346 -385 -152 -189 -298 -388
-353 -484 -42 -71 -69 -135 -114 -266 -20 -56 -75 -194 -124 -307 -131 -306
-179 -474 -274 -955 -70 -358 -97 -544 -103 -715 -5 -135 -2 -179 22 -340 32
-218 36 -412 11 -556 -9 -51 -14 -98 -12 -105 3 -8 22 -59 43 -114 35 -93 37
-107 38 -210 0 -98 -3 -116 -26 -165 -49 -105 -128 -171 -225 -189 -42 -8 -58
-6 -114 16 -132 52 -279 173 -328 268 -82 162 -74 279 48 685 63 211 111 341
190 510 147 318 198 472 207 621 11 189 -35 275 -311 574 -97 105 -176 196
-176 203 0 18 22 15 96 -13 36 -14 68 -25 69 -25 2 0 7 26 10 58 13 115 56
307 96 425 50 152 183 425 281 577 104 162 740 1016 840 1129 59 67 172 166
398 350 494 404 508 412 660 411 52 -1 100 -1 107 -1 21 2 112 81 128 112 21
39 16 51 -36 89 -48 34 -77 36 -137 9z m816 -4089 c6 -36 25 -175 41 -310 17
-135 46 -333 66 -440 36 -195 89 -419 103 -431 4 -4 43 -18 88 -33 l81 -27 17
-87 c37 -187 110 -355 189 -430 33 -32 37 -33 78 -25 38 7 47 14 63 47 11 22
21 60 24 86 l4 46 -42 13 c-54 16 -86 51 -105 114 -31 104 9 80 154 -91 114
-135 169 -189 229 -226 47 -30 47 -27 32 -161 -7 -55 -20 -111 -35 -142 -25
-55 -118 -163 -141 -163 -7 0 -26 11 -43 26 -25 20 -36 24 -65 18 -20 -3 -40
-12 -46 -19 -6 -7 -17 -62 -24 -121 -15 -123 -23 -135 -107 -153 -86 -19 -115
-15 -128 17 -21 52 -30 118 -36 262 -9 220 -11 230 -43 230 -49 0 -97 -19
-161 -65 -95 -66 -144 -80 -282 -79 -140 1 -170 13 -207 89 -32 64 -39 185
-20 348 13 104 13 120 0 125 -15 5 -92 -8 -177 -32 -32 -8 -61 -10 -80 -5 -37
10 -101 78 -138 148 -34 62 -35 61 75 177 80 84 78 84 205 55 61 -14 85 -16
91 -7 5 6 21 56 35 110 32 121 40 131 73 91 13 -16 24 -37 24 -45 0 -24 60
-121 70 -115 5 3 20 38 32 78 22 68 23 86 20 327 -1 163 3 318 13 430 8 96 19
235 25 308 13 180 26 196 48 62z m633 -1037 c31 -32 73 -89 93 -128 55 -102
164 -263 190 -280 12 -8 45 -22 72 -30 73 -21 140 -70 200 -144 131 -163 154
-195 146 -203 -5 -5 -39 -6 -76 -2 -57 6 -70 11 -84 33 -9 14 -49 57 -89 96
-91 90 -448 470 -480 512 -28 36 -85 182 -77 195 14 23 53 4 105 -49z m-1605
-614 c38 -12 68 -43 89 -91 15 -37 21 -98 9 -98 -3 0 -37 16 -75 36 -69 37
-100 71 -114 126 -12 49 3 54 91 27z m-175 -145 c60 -30 102 -79 128 -149 29
-77 28 -78 -25 -72 -40 4 -55 13 -106 63 -61 60 -108 136 -108 174 0 19 4 21
33 15 17 -4 53 -18 78 -31z m3577 -216 c89 -51 147 -94 198 -143 83 -82 102
-127 129 -310 9 -60 22 -130 30 -154 17 -49 19 -91 7 -91 -5 0 -96 89 -203
198 -186 188 -289 317 -274 342 11 18 60 -16 115 -79 46 -53 123 -102 137 -87
2 2 -2 18 -11 34 -17 33 -75 85 -176 159 -68 51 -105 107 -117 178 -6 36 -5
38 16 32 12 -3 79 -38 149 -79z m-794 -33 l57 -25 -7 -73 c-13 -148 49 -285
204 -448 108 -113 188 -182 392 -334 306 -229 402 -352 629 -802 84 -168 111
-230 111 -260 0 -78 -113 -333 -150 -341 -10 -2 -33 30 -65 88 -147 266 -217
366 -520 735 -372 453 -540 704 -673 1005 -81 184 -123 316 -125 389 -2 60 0
66 23 78 36 18 60 16 124 -12z m448 -387 c247 -283 263 -300 335 -340 60 -34
66 -56 20 -72 -26 -10 -34 -4 -158 119 -176 174 -321 336 -374 415 -45 68 -65
120 -46 120 5 0 106 -109 223 -242z m-1836 127 c8 -19 -27 -105 -44 -112 -7
-3 -29 9 -48 28 -34 33 -43 62 -24 74 8 5 69 19 103 24 4 1 10 -6 13 -14z
m-268 -100 c84 -43 199 -148 387 -356 71 -79 171 -185 221 -234 76 -74 94 -97
100 -130 12 -64 11 -120 -3 -120 -14 0 -823 851 -823 866 0 19 49 8 118 -26z
m-226 -194 c40 -32 102 -92 138 -132 107 -122 503 -520 533 -536 44 -23 49
-12 17 37 -29 44 -38 84 -22 94 14 9 372 -373 440 -469 34 -48 62 -94 62 -101
0 -30 -34 -10 -125 76 -53 50 -101 90 -107 90 -18 0 22 -52 89 -115 l63 -60 0
-62 c0 -85 -5 -93 -51 -93 -32 0 -41 4 -48 23 -10 27 -39 53 -48 43 -4 -3 25
-52 64 -109 38 -56 109 -160 157 -230 96 -141 106 -145 114 -54 l4 54 -61 54
c-34 29 -61 58 -61 63 0 13 77 -2 121 -24 78 -40 111 -101 125 -227 5 -52 10
-64 28 -69 11 -3 29 -14 39 -22 17 -15 21 -15 49 1 17 10 33 15 36 12 9 -9
-22 -58 -40 -63 -10 -2 -18 -12 -18 -21 0 -27 46 -190 80 -284 38 -105 169
-370 203 -411 l23 -29 85 46 85 47 73 -20 c149 -42 253 -112 343 -233 42 -57
102 -167 194 -355 125 -254 136 -274 169 -288 48 -20 52 -19 65 22 27 79 11
135 -88 322 -192 360 -290 465 -660 702 -100 64 -134 91 -138 110 -27 123 -50
194 -93 292 -74 168 -88 237 -44 221 37 -13 198 -116 292 -185 151 -112 265
-211 417 -362 282 -281 460 -547 525 -781 27 -99 30 -240 5 -299 -9 -21 -32
-85 -51 -143 -51 -154 -102 -218 -235 -298 -36 -21 -144 -89 -240 -150 -238
-153 -345 -212 -443 -246 -158 -55 -234 -34 -378 108 -58 57 -90 81 -93 72 -2
-8 -10 -31 -16 -52 -7 -21 -18 -41 -24 -43 -7 -3 -34 4 -61 16 -26 11 -50 19
-52 16 -2 -2 3 -45 12 -96 12 -68 13 -96 5 -104 -17 -17 -130 -13 -167 7 -17
9 -70 52 -117 96 -88 82 -125 101 -195 101 -39 0 -128 45 -142 72 -13 24 16
78 49 93 12 5 22 13 22 18 0 13 -103 137 -109 131 -3 -3 -11 -29 -16 -57 -13
-64 -31 -67 -63 -10 -16 29 -40 52 -78 73 -57 33 -62 43 -41 75 8 11 22 33 33
49 l18 29 -23 -13 c-14 -7 -44 -10 -73 -8 -60 6 -99 35 -188 143 -112 136
-376 420 -447 480 -102 88 -273 193 -273 169 0 -47 379 -411 655 -630 24 -19
36 -35 31 -42 -4 -7 -34 -30 -67 -52 -32 -23 -59 -45 -59 -49 0 -5 46 -42 103
-82 56 -40 108 -77 115 -82 22 -17 13 0 -25 45 -52 61 -93 129 -93 151 0 18 5
19 48 14 74 -9 95 -23 185 -126 122 -141 121 -139 106 -206 -7 -30 -10 -58 -6
-61 3 -3 27 2 52 12 54 20 65 13 65 -46 0 -99 37 -145 126 -161 90 -15 184
-49 184 -64 0 -8 -20 -26 -45 -41 -49 -28 -64 -61 -48 -97 23 -49 106 -147
149 -176 84 -55 173 -54 354 5 177 58 248 50 290 -32 22 -42 20 -263 -4 -374
-28 -135 -36 -160 -50 -160 -8 0 -39 12 -71 26 -123 56 -213 66 -385 39 -52
-8 -137 -18 -187 -21 l-93 -7 0 29 c0 16 12 87 26 159 27 139 27 201 -1 255
-31 60 -163 170 -203 170 -11 0 -45 -11 -76 -25 -31 -14 -66 -25 -78 -25 -24
0 -418 210 -418 223 0 5 19 31 41 58 l42 49 -27 39 c-37 52 -143 154 -184 175
-30 16 -32 16 -32 -1 0 -27 41 -109 98 -197 54 -81 60 -96 41 -96 -45 0 -230
187 -759 765 -211 231 -409 448 -441 482 -49 53 -140 176 -205 277 -38 59 13
12 199 -185 118 -125 230 -232 309 -295 99 -80 162 -144 320 -324 233 -265
250 -282 286 -278 18 2 27 9 26 20 -1 9 -122 150 -270 312 -247 273 -329 375
-313 390 13 14 41 -12 209 -192 218 -234 283 -298 362 -358 35 -26 155 -138
268 -249 222 -218 310 -300 362 -335 18 -13 -71 82 -198 211 -157 160 -248
259 -284 314 -29 44 -76 105 -105 135 -71 73 -375 433 -375 442 0 5 4 8 9 8 5
0 122 -97 261 -216 138 -118 254 -214 256 -211 2 2 -3 25 -12 51 -17 50 -7 39
-448 511 -207 223 -197 202 -176 335 14 83 19 100 31 100 23 0 151 -93 250
-182 110 -99 169 -144 169 -132 0 32 -74 114 -226 250 l-176 158 4 103 c3 64
10 108 17 116 18 17 76 -49 192 -220 64 -94 132 -178 215 -263 66 -69 135
-146 152 -172 30 -43 37 -48 72 -48 49 0 31 16 564 -489 236 -223 433 -408
439 -410 16 -6 -1 60 -21 82 -9 11 -40 34 -67 52 -81 54 -186 164 -213 223
-28 63 -50 198 -34 214 18 18 58 -15 237 -196 190 -193 255 -253 237 -220 -17
32 -177 209 -211 233 -16 12 -60 58 -98 104 -37 45 -104 118 -148 162 -89 89
-145 169 -229 326 -81 152 -115 259 -83 259 7 0 130 -120 272 -267 321 -332
575 -574 575 -548 0 10 -203 289 -259 355 -25 30 -160 172 -301 315 -276 281
-363 387 -439 535 -60 116 -97 230 -79 241 29 18 140 -63 221 -160 34 -42 125
-141 202 -221 77 -80 242 -267 366 -415 228 -272 388 -450 396 -441 7 7 -185
260 -314 411 -178 210 -224 270 -298 385 -43 66 -105 144 -169 210 -96 99
-367 415 -387 452 -19 35 11 25 92 -29 62 -43 185 -157 473 -443 367 -364 396
-395 530 -575 127 -169 250 -305 277 -305 35 0 -20 110 -82 162 -56 47 -58 54
-34 188 l15 85 -50 43 -50 44 0 62 c0 79 -16 128 -39 122 -9 -2 -42 -10 -74
-17 -32 -7 -60 -16 -63 -21 -3 -4 27 -59 65 -122 39 -63 71 -119 71 -125 0
-19 -35 -12 -81 18 -56 37 -54 34 -645 686 -274 302 -524 575 -555 606 -61 59
-73 89 -67 164 4 57 25 51 89 -25 29 -36 128 -141 220 -235 97 -99 184 -199
211 -240 27 -44 108 -134 214 -240 93 -94 201 -205 238 -248 66 -75 171 -165
181 -155 9 8 -89 149 -165 238 -40 47 -152 172 -249 278 -164 179 -203 233
-180 247 5 4 30 -3 55 -14 55 -25 60 -26 44 -7 -6 8 -19 36 -29 63 l-17 47
-90 -3 -90 -3 -51 69 c-28 37 -117 141 -197 231 -155 174 -222 259 -212 269
13 13 58 -24 157 -130 97 -103 175 -167 206 -167 28 0 14 55 -23 91 -20 18
-82 97 -137 173 -56 77 -118 159 -139 184 -37 42 -48 72 -28 72 17 0 80 -62
173 -169 105 -122 277 -301 289 -301 15 0 8 16 -38 86 -56 84 -140 184 -309
369 -148 162 -250 291 -305 384 -47 80 -54 107 -25 103 39 -7 96 -59 164 -147
108 -141 296 -313 318 -292 10 10 -59 128 -115 198 -33 41 -120 137 -194 215
-123 129 -228 260 -228 285 0 16 53 -17 132 -80z m5076 -21 c54 -39 125 -129
162 -206 48 -100 63 -181 57 -319 -6 -148 -35 -253 -112 -412 -129 -268 -325
-490 -573 -654 -140 -91 -332 -167 -332 -130 0 46 112 746 121 751 12 8 92 -6
214 -38 44 -11 121 -23 171 -27 111 -8 119 -2 119 91 0 112 -53 154 -341 274
-132 55 -180 80 -195 101 -37 52 -51 110 -52 209 -1 83 2 102 25 151 47 103
148 178 284 213 84 21 102 23 265 25 l146 1 41 -30z m-5818 -11 c82 -50 162
-123 207 -192 49 -74 82 -151 69 -164 -14 -15 -117 51 -169 106 -51 56 -157
229 -157 257 0 19 9 18 50 -7z m1716 -154 c10 -170 9 -195 -7 -195 -21 0 -199
254 -199 285 0 11 156 84 175 82 19 -2 21 -13 31 -172z m2211 -203 c16 -56 -1
-65 -38 -21 -33 39 -36 56 -11 62 29 8 36 2 49 -41z m-6476 -160 c22 -58 38
-215 25 -247 -5 -14 -9 -15 -22 -4 -47 39 -115 249 -94 289 15 27 42 41 57 28
7 -5 22 -35 34 -66z m2889 -33 c53 -42 116 -99 139 -125 75 -85 159 -284 120
-284 -34 0 -180 108 -269 199 -100 103 -207 258 -196 286 5 13 16 14 58 9 45
-6 64 -17 148 -85z m3448 27 c87 -70 181 -195 246 -323 27 -55 32 -73 17 -73
-9 0 -318 401 -327 425 -10 25 9 17 64 -29z m-4298 -1 c23 -8 60 -31 81 -50
25 -22 49 -35 67 -35 51 0 157 -31 227 -66 114 -56 245 -185 245 -241 0 -15
-14 -39 -35 -60 -36 -36 -36 -36 -109 -31 -63 4 -89 12 -178 55 -97 48 -306
181 -355 226 -21 18 -23 30 -23 112 0 50 3 95 7 98 10 10 26 9 73 -8z m3515
-276 c44 -52 156 -185 248 -295 184 -217 293 -372 357 -506 62 -128 43 -136
-70 -32 -81 75 -160 172 -322 394 -75 102 -172 226 -215 275 -44 50 -85 100
-91 112 -17 31 -16 156 1 151 6 -3 48 -47 92 -99z m-5111 -113 c99 -74 191
-169 299 -308 148 -191 191 -272 224 -423 18 -81 24 -378 8 -383 -5 -2 -24 45
-41 105 -81 288 -182 473 -524 963 -33 47 -60 88 -60 93 0 17 28 3 94 -47z
m-270 -75 c44 -35 283 -331 330 -410 51 -83 209 -431 249 -546 62 -178 81
-284 81 -435 1 -114 -3 -144 -21 -192 -27 -73 -60 -120 -82 -116 -20 4 -210
379 -299 589 -135 320 -241 650 -307 955 -19 90 -35 167 -35 173 0 21 48 11
84 -18z m2750 -178 l69 -85 46 6 c177 24 191 21 191 -43 0 -44 -24 -130 -51
-183 l-19 -38 -119 0 -119 0 -65 63 c-98 95 -101 103 -66 212 15 50 28 102 28
116 1 28 8 39 25 39 6 -1 42 -39 80 -87z m-434 -90 c0 -34 -47 -118 -84 -151
-28 -25 -46 -32 -77 -32 -53 0 -79 15 -79 45 0 62 44 103 148 136 73 23 92 23
92 2z m-1034 -265 c69 -72 86 -101 104 -178 26 -112 86 -202 183 -275 94 -69
154 -133 211 -222 43 -67 56 -103 39 -103 -5 0 -86 34 -181 77 -128 56 -186
88 -221 119 -50 45 -103 136 -156 264 -31 77 -108 388 -100 408 7 18 43 -8
121 -90z m666 57 c6 -14 19 -25 29 -25 24 0 32 -16 25 -46 -7 -27 -27 -31 -46
-9 -9 11 -17 12 -31 4 -27 -14 -39 -3 -39 33 0 30 23 68 42 68 5 0 14 -11 20
-25z m-148 -145 c29 -35 27 -47 -16 -77 -40 -28 -58 -16 -58 37 0 77 29 93 74
40z m694 -7 c33 -84 37 -123 37 -343 0 -188 -4 -245 -22 -345 -29 -158 -41
-195 -59 -195 -26 0 -103 59 -135 103 -83 114 -76 268 21 502 23 55 60 146 83
203 23 56 47 102 53 102 6 0 16 -12 22 -27z m-355 -69 c48 -25 67 -45 67 -71
0 -65 -84 -360 -110 -387 -6 -6 -34 6 -70 28 -46 29 -73 38 -114 41 -53 3
-146 36 -146 52 1 4 12 22 25 38 19 23 37 32 82 40 l58 11 6 54 c8 77 33 124
91 170 57 45 66 47 111 24z m929 -64 c28 -58 188 -476 188 -491 0 -22 -34 -4
-131 71 -57 44 -107 80 -111 80 -5 0 -8 -12 -8 -26 0 -19 30 -54 123 -147 132
-130 190 -203 268 -335 53 -89 57 -102 34 -102 -72 0 -308 228 -499 483 -120
159 -196 327 -182 403 16 81 93 125 216 121 l75 -2 27 -55z m-1050 -1197 c318
-319 484 -512 458 -528 -23 -14 -122 68 -351 289 -252 243 -260 253 -333 385
-88 160 -61 142 226 -146z m4691 -229 c9 -27 24 -68 33 -91 22 -61 96 -138
189 -198 77 -49 129 -99 123 -116 -2 -4 -299 -242 -661 -528 l-658 -520 -167
-87 c-92 -48 -197 -104 -234 -125 -59 -35 -98 -48 -98 -34 0 2 -22 113 -50
246 -27 133 -50 254 -50 269 0 25 22 40 328 210 180 101 374 217 432 258 131
94 406 363 575 563 124 146 191 212 210 206 5 -2 18 -26 28 -53z"/>
<path d="M4330 4685 c0 -28 30 -70 84 -118 25 -23 77 -82 114 -132 37 -49 82
-100 101 -112 106 -72 0 65 -280 362 -19 19 -19 19 -19 0z"/>
<path d="M5005 3603 c9 -39 29 -58 72 -71 20 -6 38 -10 40 -9 1 2 0 27 -4 55
l-6 52 -54 0 c-55 0 -55 0 -48 -27z"/>
<path d="M3950 2503 c0 -4 8 -17 16 -28 15 -20 16 -20 12 4 -3 22 -28 44 -28
24z"/>
<path d="M4070 2304 c115 -189 132 -213 203 -276 42 -38 80 -68 86 -68 10 0
28 48 20 53 -44 24 -76 55 -182 174 -138 154 -164 178 -127 117z"/>
<path d="M5785 1740 c-8 -26 11 -60 35 -60 24 0 25 11 5 50 -18 35 -31 38 -40
10z"/>
<path d="M5735 1548 c-4 -9 -5 -37 -3 -64 3 -45 5 -48 37 -57 26 -6 38 -5 49
7 13 13 12 18 -6 48 -11 18 -32 44 -46 57 -21 20 -26 21 -31 9z"/>
<path d="M4855 8529 c-78 -10 -165 -33 -207 -55 -25 -13 -28 -20 -28 -69 0
-29 5 -57 10 -60 17 -11 50 -82 61 -135 15 -69 43 -84 164 -84 99 -1 145 -19
145 -56 0 -10 4 -21 10 -25 10 -6 201 29 235 44 14 6 32 37 53 94 36 95 64
137 92 137 13 0 22 11 29 38 6 20 11 42 11 49 0 35 -198 107 -342 122 -109 12
-133 12 -233 0z"/>
</g>
</svg>
